<mxfile host="Electron" modified="2023-12-16T08:33:01.635Z" agent="Mozilla/5.0 (X11; Linux x86_64) AppleWebKit/537.36 (KHTML, like Gecko) draw.io/22.1.2 Chrome/114.0.5735.289 Electron/25.9.4 Safari/537.36" etag="LR6iqLcZV1nb1ZaxHqWs" version="22.1.2" type="device">
  <diagram name="Страница — 1" id="PRxYjFyHiIx0RXIQD2Qv">
    <mxGraphModel dx="1434" dy="2008" grid="1" gridSize="10" guides="1" tooltips="1" connect="1" arrows="1" fold="1" page="1" pageScale="1" pageWidth="827" pageHeight="1169" math="0" shadow="0">
      <root>
        <mxCell id="0" />
        <mxCell id="1" parent="0" />
        <mxCell id="jf8HoyTJuiYG9wIg41pM-1" value="user" style="whiteSpace=wrap;html=1;aspect=fixed;" vertex="1" parent="1">
          <mxGeometry x="280" y="440" width="80" height="80" as="geometry" />
        </mxCell>
        <mxCell id="jf8HoyTJuiYG9wIg41pM-2" value="животные" style="whiteSpace=wrap;html=1;aspect=fixed;" vertex="1" parent="1">
          <mxGeometry x="440" y="160" width="80" height="80" as="geometry" />
        </mxCell>
        <mxCell id="jf8HoyTJuiYG9wIg41pM-3" value="птицы" style="whiteSpace=wrap;html=1;aspect=fixed;" vertex="1" parent="1">
          <mxGeometry x="560" y="160" width="80" height="80" as="geometry" />
        </mxCell>
        <mxCell id="jf8HoyTJuiYG9wIg41pM-4" value="насекомые" style="whiteSpace=wrap;html=1;aspect=fixed;" vertex="1" parent="1">
          <mxGeometry x="680" y="160" width="80" height="80" as="geometry" />
        </mxCell>
        <mxCell id="jf8HoyTJuiYG9wIg41pM-5" value="рыбы" style="whiteSpace=wrap;html=1;aspect=fixed;" vertex="1" parent="1">
          <mxGeometry x="800" y="160" width="80" height="80" as="geometry" />
        </mxCell>
        <mxCell id="jf8HoyTJuiYG9wIg41pM-6" value="пауки" style="whiteSpace=wrap;html=1;aspect=fixed;" vertex="1" parent="1">
          <mxGeometry x="920" y="160" width="80" height="80" as="geometry" />
        </mxCell>
        <mxCell id="jf8HoyTJuiYG9wIg41pM-7" value="главная катерия" style="whiteSpace=wrap;html=1;aspect=fixed;" vertex="1" parent="1">
          <mxGeometry x="680" y="-120" width="80" height="80" as="geometry" />
        </mxCell>
        <mxCell id="jf8HoyTJuiYG9wIg41pM-8" value="животный&amp;nbsp;&lt;br&gt;мир" style="whiteSpace=wrap;html=1;aspect=fixed;" vertex="1" parent="1">
          <mxGeometry x="680" width="80" height="80" as="geometry" />
        </mxCell>
        <mxCell id="jf8HoyTJuiYG9wIg41pM-9" value="пейзаж" style="whiteSpace=wrap;html=1;aspect=fixed;" vertex="1" parent="1">
          <mxGeometry x="280" y="40" width="80" height="80" as="geometry" />
        </mxCell>
        <mxCell id="jf8HoyTJuiYG9wIg41pM-10" value="растения" style="whiteSpace=wrap;html=1;aspect=fixed;" vertex="1" parent="1">
          <mxGeometry x="1241" y="40" width="80" height="80" as="geometry" />
        </mxCell>
        <mxCell id="jf8HoyTJuiYG9wIg41pM-11" value="" style="endArrow=classic;html=1;rounded=0;exitX=0.5;exitY=1;exitDx=0;exitDy=0;entryX=0.5;entryY=0;entryDx=0;entryDy=0;" edge="1" parent="1" source="jf8HoyTJuiYG9wIg41pM-7" target="jf8HoyTJuiYG9wIg41pM-8">
          <mxGeometry width="50" height="50" relative="1" as="geometry">
            <mxPoint x="480" y="220" as="sourcePoint" />
            <mxPoint x="530" y="170" as="targetPoint" />
          </mxGeometry>
        </mxCell>
        <mxCell id="jf8HoyTJuiYG9wIg41pM-12" value="" style="endArrow=classic;html=1;rounded=0;exitX=0.425;exitY=1.025;exitDx=0;exitDy=0;exitPerimeter=0;entryX=1;entryY=0;entryDx=0;entryDy=0;" edge="1" parent="1" source="jf8HoyTJuiYG9wIg41pM-7" target="jf8HoyTJuiYG9wIg41pM-9">
          <mxGeometry width="50" height="50" relative="1" as="geometry">
            <mxPoint x="540" y="90" as="sourcePoint" />
            <mxPoint x="530" y="170" as="targetPoint" />
          </mxGeometry>
        </mxCell>
        <mxCell id="jf8HoyTJuiYG9wIg41pM-13" value="" style="endArrow=classic;html=1;rounded=0;" edge="1" parent="1">
          <mxGeometry width="50" height="50" relative="1" as="geometry">
            <mxPoint x="720" y="-40" as="sourcePoint" />
            <mxPoint x="1240" y="40" as="targetPoint" />
          </mxGeometry>
        </mxCell>
        <mxCell id="jf8HoyTJuiYG9wIg41pM-14" value="" style="edgeStyle=segmentEdgeStyle;endArrow=classic;html=1;curved=0;rounded=0;endSize=8;startSize=8;exitX=0.5;exitY=1;exitDx=0;exitDy=0;entryX=0.5;entryY=0;entryDx=0;entryDy=0;" edge="1" parent="1" source="jf8HoyTJuiYG9wIg41pM-8" target="jf8HoyTJuiYG9wIg41pM-6">
          <mxGeometry width="50" height="50" relative="1" as="geometry">
            <mxPoint x="820" y="220" as="sourcePoint" />
            <mxPoint x="870" y="170" as="targetPoint" />
            <Array as="points">
              <mxPoint x="720" y="120" />
              <mxPoint x="960" y="120" />
            </Array>
          </mxGeometry>
        </mxCell>
        <mxCell id="jf8HoyTJuiYG9wIg41pM-15" value="" style="edgeStyle=segmentEdgeStyle;endArrow=classic;html=1;curved=0;rounded=0;endSize=8;startSize=8;exitX=0.5;exitY=1;exitDx=0;exitDy=0;entryX=0.5;entryY=0;entryDx=0;entryDy=0;" edge="1" parent="1" source="jf8HoyTJuiYG9wIg41pM-8" target="jf8HoyTJuiYG9wIg41pM-5">
          <mxGeometry width="50" height="50" relative="1" as="geometry">
            <mxPoint x="820" y="220" as="sourcePoint" />
            <mxPoint x="870" y="170" as="targetPoint" />
            <Array as="points">
              <mxPoint x="720" y="120" />
              <mxPoint x="840" y="120" />
            </Array>
          </mxGeometry>
        </mxCell>
        <mxCell id="jf8HoyTJuiYG9wIg41pM-16" value="" style="edgeStyle=segmentEdgeStyle;endArrow=classic;html=1;curved=0;rounded=0;endSize=8;startSize=8;exitX=0.5;exitY=1;exitDx=0;exitDy=0;entryX=0.5;entryY=0;entryDx=0;entryDy=0;" edge="1" parent="1" source="jf8HoyTJuiYG9wIg41pM-8" target="jf8HoyTJuiYG9wIg41pM-4">
          <mxGeometry width="50" height="50" relative="1" as="geometry">
            <mxPoint x="820" y="220" as="sourcePoint" />
            <mxPoint x="870" y="170" as="targetPoint" />
          </mxGeometry>
        </mxCell>
        <mxCell id="jf8HoyTJuiYG9wIg41pM-17" value="" style="edgeStyle=segmentEdgeStyle;endArrow=classic;html=1;curved=0;rounded=0;endSize=8;startSize=8;entryX=0.5;entryY=0;entryDx=0;entryDy=0;" edge="1" parent="1" source="jf8HoyTJuiYG9wIg41pM-5" target="jf8HoyTJuiYG9wIg41pM-3">
          <mxGeometry width="50" height="50" relative="1" as="geometry">
            <mxPoint x="820" y="220" as="sourcePoint" />
            <mxPoint x="870" y="170" as="targetPoint" />
            <Array as="points">
              <mxPoint x="840" y="120" />
              <mxPoint x="600" y="120" />
            </Array>
          </mxGeometry>
        </mxCell>
        <mxCell id="jf8HoyTJuiYG9wIg41pM-18" value="" style="edgeStyle=segmentEdgeStyle;endArrow=classic;html=1;curved=0;rounded=0;endSize=8;startSize=8;entryX=0.5;entryY=0;entryDx=0;entryDy=0;" edge="1" parent="1" target="jf8HoyTJuiYG9wIg41pM-2">
          <mxGeometry width="50" height="50" relative="1" as="geometry">
            <mxPoint x="720" y="120" as="sourcePoint" />
            <mxPoint x="870" y="170" as="targetPoint" />
          </mxGeometry>
        </mxCell>
        <mxCell id="jf8HoyTJuiYG9wIg41pM-19" value="фото" style="whiteSpace=wrap;html=1;aspect=fixed;" vertex="1" parent="1">
          <mxGeometry x="680" y="440" width="80" height="80" as="geometry" />
        </mxCell>
        <mxCell id="jf8HoyTJuiYG9wIg41pM-20" value="" style="endArrow=classic;html=1;rounded=0;exitX=1;exitY=0.5;exitDx=0;exitDy=0;entryX=0;entryY=0.5;entryDx=0;entryDy=0;" edge="1" parent="1" source="jf8HoyTJuiYG9wIg41pM-1" target="jf8HoyTJuiYG9wIg41pM-19">
          <mxGeometry width="50" height="50" relative="1" as="geometry">
            <mxPoint x="410" y="220" as="sourcePoint" />
            <mxPoint x="460" y="170" as="targetPoint" />
          </mxGeometry>
        </mxCell>
        <mxCell id="jf8HoyTJuiYG9wIg41pM-22" value="" style="edgeStyle=elbowEdgeStyle;elbow=vertical;endArrow=classic;html=1;curved=0;rounded=0;endSize=8;startSize=8;exitX=0.5;exitY=1;exitDx=0;exitDy=0;entryX=0.5;entryY=0;entryDx=0;entryDy=0;" edge="1" parent="1" source="jf8HoyTJuiYG9wIg41pM-9" target="jf8HoyTJuiYG9wIg41pM-19">
          <mxGeometry width="50" height="50" relative="1" as="geometry">
            <mxPoint x="410" y="220" as="sourcePoint" />
            <mxPoint x="460" y="170" as="targetPoint" />
            <Array as="points">
              <mxPoint x="320" y="350" />
            </Array>
          </mxGeometry>
        </mxCell>
        <mxCell id="jf8HoyTJuiYG9wIg41pM-23" value="" style="edgeStyle=elbowEdgeStyle;elbow=vertical;endArrow=classic;html=1;curved=0;rounded=0;endSize=8;startSize=8;exitX=0.5;exitY=1;exitDx=0;exitDy=0;entryX=0.5;entryY=0;entryDx=0;entryDy=0;" edge="1" parent="1">
          <mxGeometry width="50" height="50" relative="1" as="geometry">
            <mxPoint x="480" y="230" as="sourcePoint" />
            <mxPoint x="720" y="430" as="targetPoint" />
            <Array as="points">
              <mxPoint x="570" y="320" />
            </Array>
          </mxGeometry>
        </mxCell>
        <mxCell id="jf8HoyTJuiYG9wIg41pM-24" value="" style="edgeStyle=elbowEdgeStyle;elbow=vertical;endArrow=classic;html=1;curved=0;rounded=0;endSize=8;startSize=8;exitX=0.5;exitY=1;exitDx=0;exitDy=0;" edge="1" parent="1" source="jf8HoyTJuiYG9wIg41pM-3">
          <mxGeometry width="50" height="50" relative="1" as="geometry">
            <mxPoint x="410" y="220" as="sourcePoint" />
            <mxPoint x="720" y="430" as="targetPoint" />
            <Array as="points">
              <mxPoint x="660" y="320" />
            </Array>
          </mxGeometry>
        </mxCell>
        <mxCell id="jf8HoyTJuiYG9wIg41pM-25" value="" style="edgeStyle=elbowEdgeStyle;elbow=vertical;endArrow=classic;html=1;curved=0;rounded=0;endSize=8;startSize=8;exitX=0.5;exitY=1;exitDx=0;exitDy=0;" edge="1" parent="1" source="jf8HoyTJuiYG9wIg41pM-4">
          <mxGeometry width="50" height="50" relative="1" as="geometry">
            <mxPoint x="410" y="220" as="sourcePoint" />
            <mxPoint x="720" y="430" as="targetPoint" />
          </mxGeometry>
        </mxCell>
        <mxCell id="jf8HoyTJuiYG9wIg41pM-26" value="" style="edgeStyle=elbowEdgeStyle;elbow=vertical;endArrow=classic;html=1;curved=0;rounded=0;endSize=8;startSize=8;" edge="1" parent="1">
          <mxGeometry width="50" height="50" relative="1" as="geometry">
            <mxPoint x="840" y="240" as="sourcePoint" />
            <mxPoint x="720" y="410" as="targetPoint" />
            <Array as="points">
              <mxPoint x="780" y="320" />
            </Array>
          </mxGeometry>
        </mxCell>
        <mxCell id="jf8HoyTJuiYG9wIg41pM-27" value="" style="edgeStyle=elbowEdgeStyle;elbow=vertical;endArrow=classic;html=1;curved=0;rounded=0;endSize=8;startSize=8;" edge="1" parent="1">
          <mxGeometry width="50" height="50" relative="1" as="geometry">
            <mxPoint x="960" y="240" as="sourcePoint" />
            <mxPoint x="720" y="410" as="targetPoint" />
            <Array as="points">
              <mxPoint x="830" y="320" />
            </Array>
          </mxGeometry>
        </mxCell>
        <mxCell id="jf8HoyTJuiYG9wIg41pM-28" value="" style="edgeStyle=elbowEdgeStyle;elbow=vertical;endArrow=classic;html=1;curved=0;rounded=0;endSize=8;startSize=8;exitX=0.5;exitY=1;exitDx=0;exitDy=0;" edge="1" parent="1" source="jf8HoyTJuiYG9wIg41pM-10">
          <mxGeometry width="50" height="50" relative="1" as="geometry">
            <mxPoint x="680" y="340" as="sourcePoint" />
            <mxPoint x="720" y="430" as="targetPoint" />
            <Array as="points">
              <mxPoint x="980" y="350" />
            </Array>
          </mxGeometry>
        </mxCell>
      </root>
    </mxGraphModel>
  </diagram>
</mxfile>
